<?xml version="1.0" standalone="no"?>
<!DOCTYPE svg PUBLIC "-//W3C//DTD SVG 20010904//EN"
 "http://www.w3.org/TR/2001/REC-SVG-20010904/DTD/svg10.dtd">
<svg version="1.0" xmlns="http://www.w3.org/2000/svg"
 width="512.000000pt" height="512.000000pt" viewBox="0 0 512.000000 512.000000"
 preserveAspectRatio="xMidYMid meet">
<metadata>
Created by potrace 1.14, written by Peter Selinger 2001-2017
</metadata>
<g transform="translate(0.000000,512.000000) scale(0.100000,-0.100000)"
fill="#000000" stroke="none">
<path d="M2413 4738 c-2 -5 2 -8 9 -8 10 0 10 -2 -1 -9 -11 -7 -11 -9 0 -13 9
-3 7 -10 -9 -26 -12 -12 -22 -24 -22 -27 0 -3 0 -12 0 -21 0 -8 -5 -12 -10 -9
-6 4 -10 -5 -8 -22 2 -32 -9 -56 -22 -48 -4 3 -7 -3 -6 -12 2 -10 -1 -21 -6
-24 -5 -3 -10 -14 -12 -23 -1 -10 -9 -22 -17 -27 -8 -5 -10 -9 -4 -9 5 0 0 -7
-11 -15 -15 -10 -20 -22 -17 -40 4 -16 0 -27 -10 -31 -9 -3 -13 -13 -9 -26 3
-13 1 -19 -5 -15 -14 9 -22 -13 -19 -47 2 -17 -2 -26 -10 -26 -9 0 -14 -12
-14 -35 0 -19 -4 -35 -10 -35 -5 0 -10 -7 -10 -15 0 -8 -6 -15 -12 -15 -9 0
-8 -4 2 -10 13 -8 13 -10 -1 -10 -11 0 -15 -9 -14 -30 1 -21 -4 -34 -16 -40
-11 -6 -15 -17 -12 -30 4 -14 1 -20 -8 -18 -9 2 -14 -5 -13 -19 1 -13 -4 -23
-11 -23 -7 0 -12 -8 -12 -17 0 -41 -4 -54 -13 -48 -6 4 -10 3 -9 -2 4 -24 -2
-53 -11 -48 -6 4 -10 -5 -10 -19 0 -14 -4 -26 -10 -26 -5 0 -10 -7 -10 -15 0
-8 -5 -15 -11 -15 -8 0 -8 -4 -1 -13 7 -8 7 -18 2 -27 -6 -8 -10 -11 -10 -7 0
5 -7 1 -16 -8 -9 -8 -13 -22 -10 -30 3 -9 -3 -19 -15 -26 -11 -6 -18 -13 -15
-16 3 -4 0 -13 -7 -21 -10 -13 -9 -14 3 -7 12 7 11 3 -2 -18 -10 -14 -18 -33
-18 -41 0 -8 -5 -16 -11 -18 -5 -2 -11 -12 -13 -21 -1 -10 -7 -22 -12 -25 -5
-4 -9 -14 -9 -22 1 -8 -4 -21 -9 -29 -9 -12 -8 -13 3 -6 14 8 -19 -43 -52 -79
-10 -11 -15 -26 -13 -33 3 -7 -1 -13 -9 -13 -7 0 -17 -5 -21 -12 -4 -6 -3 -8
3 -5 7 4 10 -3 9 -18 0 -14 -7 -27 -13 -30 -7 -2 -13 -14 -13 -25 0 -11 -5
-20 -11 -20 -5 0 -7 -4 -4 -10 3 -5 1 -10 -5 -10 -6 0 -8 -5 -4 -11 3 -6 0
-15 -7 -20 -8 -4 -14 -12 -15 -16 -1 -17 -38 -83 -46 -83 -5 0 -7 -4 -4 -9 8
-13 -4 -42 -15 -36 -4 3 -6 -3 -4 -14 2 -11 -3 -22 -11 -25 -9 -3 -13 -10 -10
-15 3 -5 -1 -14 -9 -21 -8 -7 -13 -16 -10 -20 3 -5 1 -11 -5 -15 -6 -4 -8 -10
-5 -15 3 -4 -2 -11 -11 -14 -10 -4 -14 -14 -11 -26 3 -11 0 -18 -7 -17 -6 1
-10 -4 -8 -10 1 -7 -2 -13 -6 -13 -5 0 -7 -13 -6 -29 1 -20 -2 -28 -11 -25
-13 5 -14 -53 -1 -75 4 -6 2 -10 -4 -9 -7 2 -15 -4 -20 -12 -4 -8 -15 -30 -24
-47 -9 -18 -14 -33 -9 -33 4 0 1 -5 -7 -10 -8 -5 -15 -13 -16 -17 -2 -19 -17
-42 -24 -38 -5 3 -6 -4 -3 -15 3 -12 0 -20 -6 -20 -7 0 -10 -4 -6 -9 3 -6 -7
-22 -22 -37 -16 -14 -22 -23 -15 -20 7 5 12 1 12 -9 0 -8 -7 -18 -15 -21 -8
-4 -15 -15 -15 -25 0 -10 -4 -19 -10 -19 -5 0 -10 -12 -10 -26 0 -14 -4 -23
-10 -19 -5 3 -11 -2 -11 -12 -3 -40 -17 -75 -29 -68 -4 2 -5 -7 -2 -22 4 -20
2 -24 -8 -18 -10 6 -12 3 -8 -13 4 -13 0 -26 -11 -34 -15 -12 -15 -11 -1 7 14
18 14 19 -2 7 -9 -7 -15 -22 -13 -32 2 -10 -3 -21 -11 -24 -8 -3 -14 -12 -12
-20 2 -8 -8 -24 -21 -35 -13 -12 -20 -21 -15 -21 5 0 5 -4 -1 -8 -14 -10 -39
-55 -26 -47 11 6 -23 -49 -54 -90 -9 -11 -18 -30 -22 -43 -3 -13 -11 -21 -18
-19 -8 4 -10 -3 -7 -19 2 -14 0 -24 -7 -24 -6 0 -11 -9 -11 -19 0 -10 -6 -21
-14 -24 -8 -3 -13 -14 -12 -24 3 -18 -14 -44 -25 -37 -3 2 -4 -8 -1 -21 3 -20
1 -24 -12 -19 -14 5 -16 2 -12 -19 3 -17 -1 -27 -12 -32 -14 -5 -14 -7 -2 -15
10 -6 11 -10 3 -10 -8 0 -11 -11 -9 -30 2 -18 -1 -30 -8 -30 -15 0 -43 -33
-39 -46 2 -5 -5 -19 -16 -31 -15 -16 -17 -23 -8 -33 7 -7 7 -10 2 -7 -6 3 -19
-1 -30 -9 -10 -8 -15 -14 -9 -14 5 0 -2 -10 -16 -21 -14 -11 -18 -17 -10 -13
13 7 13 6 0 -12 -8 -10 -17 -21 -20 -24 -3 -3 -12 -14 -20 -24 -13 -18 -13
-19 0 -12 9 4 8 2 -2 -7 -10 -8 -15 -17 -11 -20 3 -4 2 -7 -4 -7 -6 0 -14 -11
-17 -25 -4 -16 -11 -23 -18 -19 -6 4 -8 3 -5 -4 9 -14 -3 -43 -14 -36 -9 5
-13 -9 -10 -35 2 -7 -2 -10 -8 -6 -10 5 -16 -15 -12 -38 1 -5 -3 -6 -8 -2 -12
7 -52 -30 -43 -40 4 -4 -2 -13 -12 -21 -11 -8 -17 -14 -13 -14 5 0 2 -6 -5
-14 -7 -8 -16 -12 -21 -9 -4 2 -6 1 -5 -4 1 -4 -4 -19 -11 -32 -11 -19 -11
-22 1 -15 10 6 11 5 1 -8 -7 -8 -9 -19 -5 -23 4 -5 1 -5 -5 -1 -7 4 -13 3 -13
-2 0 -5 -10 -14 -23 -21 -15 -8 -16 -10 -3 -6 15 4 17 3 8 -8 -7 -8 -9 -17 -5
-20 3 -4 -1 -7 -10 -7 -10 0 -17 -7 -17 -15 0 -8 -4 -15 -10 -15 -5 0 -10 -9
-10 -21 0 -11 -4 -17 -10 -14 -6 4 -7 -1 -3 -11 5 -13 3 -15 -7 -9 -8 5 -11 4
-7 -2 9 -15 -138 -167 -152 -159 -6 4 -10 4 -9 -1 2 -4 0 -8 -4 -8 -4 0 -13
-9 -21 -19 -9 -12 -19 -16 -27 -11 -9 5 -11 4 -6 -3 4 -7 2 -12 -4 -12 -6 0
-9 -4 -6 -9 3 -4 -7 -8 -22 -7 -21 1 -26 -3 -24 -18 3 -13 -1 -17 -11 -13 -10
4 -14 0 -13 -10 2 -9 13 -20 25 -25 13 -4 20 -4 16 1 -6 11 14 9 33 -2 7 -5 9
-14 5 -20 -5 -8 -2 -8 9 0 8 7 18 10 22 6 15 -15 38 -12 31 5 -5 13 -1 12 16
-4 12 -10 19 -13 15 -6 -8 13 6 17 18 5 15 -15 38 -12 31 5 -5 14 -3 13 14 -2
14 -12 21 -14 26 -6 6 9 10 9 16 -1 7 -11 9 -9 9 6 1 19 1 19 11 2 9 -15 13
-16 26 -6 12 10 16 10 24 -2 7 -11 9 -11 9 0 0 10 3 11 14 2 11 -9 16 -9 22 0
5 8 3 9 -6 4 -9 -6 -11 -4 -5 5 6 10 11 9 22 -5 9 -14 13 -15 13 -4 0 12 2 12
10 -1 9 -13 10 -13 10 0 0 13 1 13 10 0 9 -14 14 -7 11 15 -1 6 6 1 14 -9 8
-11 15 -14 15 -8 0 14 21 12 32 -3 4 -5 8 -1 8 10 1 19 1 19 11 2 8 -14 14
-16 25 -6 11 9 14 9 14 -2 0 -8 6 -5 15 7 10 12 14 14 13 4 -3 -16 17 -20 49
-9 14 5 23 4 27 -4 2 -7 5 -3 6 8 1 19 1 19 11 2 8 -14 14 -16 25 -6 11 9 14
9 14 -2 0 -8 6 -5 15 7 10 12 14 14 13 4 -3 -16 17 -20 48 -9 13 5 27 3 34 -4
10 -9 11 -9 6 1 -9 16 6 16 23 0 11 -10 13 -10 7 0 -4 6 -3 12 3 12 5 0 12 -6
14 -12 4 -10 6 -9 6 1 1 11 4 11 18 0 11 -10 14 -10 9 -1 -4 6 -3 12 3 12 5 0
13 -5 16 -10 5 -8 11 -8 19 -1 7 6 16 8 20 4 15 -15 38 -12 31 5 -5 14 -3 13
14 -2 14 -12 21 -14 26 -6 6 9 10 9 16 -1 7 -11 9 -9 9 6 1 19 1 19 11 2 8
-14 14 -15 24 -7 10 8 15 8 20 0 5 -8 13 -6 25 5 14 12 20 13 26 4 5 -8 3 -10
-7 -4 -8 5 -11 4 -6 0 11 -13 45 -16 52 -5 3 6 11 10 16 10 6 0 7 -5 3 -12 -4
-7 -3 -8 5 -4 6 4 9 12 6 17 -6 8 9 13 29 10 5 -1 3 5 -4 14 -11 13 -10 15 1
10 10 -4 15 1 15 14 0 11 -4 17 -8 15 -4 -3 -8 -2 -8 3 0 4 -11 13 -25 20 -14
6 -23 7 -20 3 3 -5 0 -12 -6 -16 -8 -5 -9 -3 -5 5 5 8 0 14 -13 18 -12 3 -18
10 -14 17 4 6 -1 5 -10 -2 -17 -14 -42 -7 -32 9 3 5 -1 6 -9 3 -9 -3 -16 -1
-16 5 0 6 -6 8 -14 5 -8 -3 -16 3 -19 16 -3 12 -10 19 -16 15 -6 -3 -11 -2
-11 4 0 6 -12 22 -27 37 -16 15 -22 23 -15 20 6 -4 12 -2 12 3 0 6 -6 11 -14
11 -8 0 -18 5 -22 12 -5 7 -2 9 9 5 11 -4 14 -2 10 9 -3 7 -10 14 -17 14 -7 0
-6 3 2 9 11 7 11 9 -2 14 -9 4 -16 12 -16 18 0 8 5 7 18 -2 16 -13 16 -13 0 6
-19 23 -20 25 -8 65 5 17 5 28 0 25 -5 -3 -11 -1 -15 5 -3 5 -2 10 3 10 5 0 9
7 9 15 0 8 -3 15 -7 15 -3 0 -6 9 -7 20 -1 13 2 18 10 14 7 -4 9 -3 4 1 -4 5
0 20 10 34 l16 26 -23 -20 -23 -20 12 23 c7 13 10 31 7 39 -5 13 -4 14 9 3 13
-11 14 -10 9 4 -3 9 -11 16 -18 16 -6 1 3 8 19 16 17 8 21 12 10 9 -19 -5 -19
-4 -2 9 9 7 17 17 17 23 0 16 25 63 33 63 5 0 5 5 2 10 -3 6 -1 10 5 10 6 0 8
5 5 10 -3 6 -1 10 6 10 7 0 9 3 6 7 -4 3 1 12 11 19 10 8 12 13 5 14 -22 0
-14 14 19 33 23 13 28 21 19 26 -10 6 -10 10 -2 16 9 5 9 10 0 21 -10 12 -10
15 1 12 8 -2 19 11 25 30 6 18 14 29 18 26 4 -4 7 9 7 28 0 20 5 38 11 40 5 2
11 11 12 20 2 9 9 23 16 32 7 9 10 16 5 16 -4 0 1 7 12 16 10 8 12 12 5 8 -9
-5 -7 4 6 22 12 17 25 42 28 57 4 15 12 24 18 20 6 -4 8 4 5 22 -4 19 0 33 13
46 11 11 19 24 19 29 0 6 4 10 9 10 5 0 8 8 7 17 -2 10 8 37 21 60 12 23 23
49 23 57 0 9 5 15 11 14 7 -2 12 11 13 30 1 18 7 37 15 41 7 5 11 15 9 22 -3
8 4 19 16 26 12 7 15 12 8 13 -10 0 -10 4 0 19 7 11 16 17 21 14 5 -3 6 4 3
15 -5 15 -1 22 15 27 12 4 18 10 12 14 -13 9 -9 36 6 33 9 -2 12 5 9 23 -3 14
-1 25 3 25 5 0 9 7 9 15 0 8 5 15 11 15 5 0 7 4 4 10 -3 5 2 21 11 35 9 14 13
25 8 25 -4 0 0 6 10 13 9 7 18 22 19 34 0 12 5 19 9 17 7 -5 12 10 9 29 -1 4
6 10 14 13 8 3 12 10 9 15 -3 6 0 16 6 24 10 12 10 15 1 15 -8 0 -7 6 3 16 9
8 16 22 16 30 0 8 5 14 11 14 5 0 7 4 4 10 -3 6 -1 10 5 10 6 0 8 10 4 25 -5
19 -2 25 9 25 10 0 15 7 12 20 -2 11 1 20 6 20 6 0 7 5 3 12 -5 8 -2 9 10 5
14 -6 15 -3 6 13 -9 16 -8 20 5 20 9 0 15 10 16 25 2 28 3 33 13 57 5 10 13
15 20 11 6 -4 5 1 -3 10 -12 15 -9 21 10 19 3 -1 6 6 7 14 1 7 3 21 4 28 1 8
6 14 12 13 6 -1 10 6 8 16 -2 9 4 20 11 23 9 3 13 13 9 26 -3 13 -1 19 5 15
13 -8 23 14 23 49 0 13 5 24 10 24 6 0 10 9 10 20 0 11 6 23 14 26 8 3 13 14
11 24 -2 10 2 21 9 23 8 3 16 17 20 32 11 44 35 75 54 68 15 -6 16 -5 2 12 -8
11 -10 16 -3 11 9 -5 12 1 9 23 -2 17 1 31 6 31 6 0 7 7 4 16 -3 8 -2 12 4 9
6 -3 10 4 10 16 0 12 3 20 6 16 9 -9 41 27 36 40 -2 7 3 15 11 19 9 3 18 12
21 20 4 9 2 12 -5 8 -8 -4 -7 0 0 15 7 11 17 21 22 21 6 0 9 7 5 15 -3 8 2 21
10 30 9 9 13 22 10 30 -3 8 1 21 9 29 8 8 15 22 15 30 0 9 5 16 11 16 5 0 8 4
5 9 -3 4 6 13 19 19 16 8 23 17 19 27 -4 9 1 22 12 31 11 9 13 13 7 9 -9 -4
-11 -1 -7 9 6 15 22 20 41 14 4 -2 9 -12 11 -23 1 -10 8 -22 14 -26 6 -4 8
-15 4 -25 -4 -10 -4 -15 0 -11 9 9 35 -13 28 -24 -3 -5 2 -16 11 -25 9 -9 14
-23 11 -31 -3 -8 -1 -11 4 -8 6 3 10 -3 10 -14 0 -12 5 -21 12 -21 6 0 9 -3 5
-6 -3 -3 6 -17 20 -30 15 -14 23 -30 20 -38 -4 -9 -1 -18 5 -22 7 -5 8 -2 3 6
-5 9 -4 11 3 6 7 -4 12 -18 12 -31 0 -13 4 -25 9 -27 5 -1 11 -10 13 -18 2 -8
6 -17 10 -20 3 -3 8 -12 10 -20 2 -8 12 -23 22 -32 10 -10 15 -18 11 -18 -5 0
0 -7 11 -15 15 -11 16 -15 4 -15 -11 -1 -10 -4 5 -13 11 -7 22 -21 23 -32 2
-11 11 -24 19 -29 13 -7 13 -10 2 -17 -11 -7 -11 -9 -1 -9 7 0 10 -4 7 -10 -3
-5 1 -10 9 -10 10 0 13 -6 10 -15 -4 -8 1 -17 9 -20 9 -4 14 -17 12 -36 -1
-16 2 -29 7 -29 5 0 6 -4 3 -10 -3 -5 -2 -10 4 -10 6 0 13 -11 17 -25 3 -14
10 -23 14 -20 5 3 7 -6 5 -20 -1 -14 2 -28 8 -32 6 -4 7 -1 2 7 -5 8 -4 11 3
7 5 -4 9 -19 7 -33 -1 -15 3 -28 11 -31 8 -3 14 -12 14 -20 0 -8 5 -11 10 -8
8 5 13 -22 9 -51 0 -4 4 -10 11 -14 6 -4 12 -16 13 -28 0 -11 4 -19 8 -16 9 5
21 -25 14 -36 -3 -4 2 -11 11 -14 9 -3 14 -13 10 -21 -3 -8 1 -18 8 -22 15 -9
46 -70 46 -90 0 -7 5 -13 11 -13 5 0 8 -4 5 -9 -3 -4 3 -18 14 -31 10 -12 16
-29 13 -37 -4 -11 -3 -14 6 -9 8 5 14 1 18 -13 3 -12 10 -21 15 -21 5 0 6 -4
3 -10 -3 -6 -1 -10 4 -10 6 0 11 -7 11 -15 0 -8 5 -15 11 -15 6 0 8 -7 5 -15
-3 -9 1 -18 9 -21 8 -4 15 -17 15 -30 0 -13 5 -24 10 -24 6 0 10 -12 10 -26 0
-14 7 -32 15 -40 8 -8 12 -21 8 -30 -3 -8 -2 -14 3 -12 5 2 11 -1 13 -7 2 -5
14 -29 26 -52 13 -22 21 -44 18 -47 -4 -3 -1 -6 6 -6 7 0 10 -4 6 -9 -3 -5 4
-16 15 -24 11 -7 17 -17 13 -20 -7 -8 14 -54 35 -75 7 -8 10 -18 7 -23 -4 -5
-1 -9 4 -9 6 0 11 -9 11 -19 0 -11 10 -27 22 -35 12 -9 18 -16 13 -16 -6 0 -2
-7 9 -15 10 -7 15 -18 11 -24 -3 -6 -2 -11 3 -11 6 0 15 -13 21 -30 5 -16 15
-30 21 -30 6 0 8 -4 5 -10 -3 -5 0 -10 9 -10 8 0 13 -8 12 -17 -3 -19 15 -43
27 -36 4 2 8 -2 9 -9 0 -7 2 -17 2 -23 2 -13 38 -68 51 -77 5 -4 6 -8 2 -8 -5
0 1 -16 13 -35 12 -20 17 -35 10 -35 -8 0 -8 -6 0 -20 6 -11 15 -18 19 -16 5
3 7 -6 5 -19 -1 -14 2 -23 7 -19 5 3 9 -2 9 -10 0 -9 4 -16 10 -16 5 0 12 -11
16 -25 3 -13 12 -29 20 -36 8 -6 14 -20 14 -31 0 -11 4 -16 11 -12 8 4 9 0 4
-15 -5 -15 -2 -21 10 -21 9 0 13 -4 10 -10 -3 -5 -2 -10 3 -10 6 0 8 -9 5 -20
-4 -15 -2 -19 9 -15 12 5 15 0 13 -19 -2 -17 2 -26 11 -26 8 0 14 -6 13 -12
-3 -27 1 -39 13 -32 8 5 9 2 5 -9 -3 -10 -2 -17 4 -17 6 0 7 -5 4 -10 -3 -6 1
-13 9 -16 11 -4 14 -14 10 -30 -4 -16 -1 -26 8 -29 18 -7 20 -34 4 -54 -8 -11
-8 -13 0 -8 7 4 19 -4 28 -18 9 -14 12 -25 8 -25 -12 0 -2 -53 11 -62 14 -9
12 -111 -2 -116 -6 -2 -9 -8 -5 -13 3 -5 0 -9 -5 -9 -6 0 -10 -3 -9 -7 5 -19
-36 -83 -53 -83 -11 0 -19 -5 -19 -11 0 -5 -4 -7 -10 -4 -5 3 -10 1 -10 -5 0
-6 -4 -9 -9 -5 -6 3 -19 -4 -29 -16 -14 -14 -22 -17 -27 -9 -6 9 -10 9 -16 -1
-14 -22 -11 -33 12 -47 13 -9 18 -9 14 -2 -9 14 26 10 38 -5 6 -7 10 -7 13 0
5 12 66 11 85 0 8 -6 10 -4 4 4 -6 10 -3 11 14 2 11 -7 21 -8 21 -3 0 10 43 8
61 -4 8 -5 9 -3 5 5 -10 15 25 11 37 -4 4 -7 10 -7 15 0 8 12 43 12 62 0 9 -5
11 -4 6 3 -12 19 12 14 26 -5 10 -14 27 -18 79 -17 36 0 70 4 76 7 6 4 13 2
15 -4 3 -9 10 -9 27 1 19 10 22 10 15 -2 -6 -11 -5 -11 8 0 9 7 18 9 21 5 6
-9 139 -9 155 1 6 3 12 1 14 -5 3 -9 10 -9 27 1 19 10 22 10 15 -2 -6 -11 -5
-11 8 0 9 7 19 9 22 4 3 -5 17 -8 31 -6 15 1 28 -3 31 -11 7 -17 27 -14 48 8
20 20 30 22 20 5 -6 -10 -5 -10 7 -1 12 9 18 10 27 1 8 -8 15 -8 27 2 8 7 15
8 15 2 0 -19 71 -4 91 19 10 12 19 23 19 25 0 10 -53 53 -60 49 -4 -3 -10 -1
-12 5 -2 6 -17 12 -35 14 -30 4 -77 39 -66 49 3 3 -4 3 -15 1 -12 -4 -22 0
-25 10 -4 9 -14 16 -23 16 -10 0 -15 3 -11 6 10 10 -20 34 -42 34 -13 0 -21 6
-21 16 0 9 -8 18 -19 21 -10 2 -24 15 -31 29 -7 13 -17 21 -22 18 -7 -5 -12
10 -9 29 0 4 -4 7 -9 7 -6 0 -10 6 -10 13 0 7 -9 20 -20 30 -11 9 -20 24 -20
32 0 8 -4 15 -9 15 -5 0 -12 11 -15 24 -3 14 -14 32 -24 42 -9 10 -17 25 -17
33 -1 9 -7 15 -14 13 -9 -2 -12 4 -8 17 3 14 -4 27 -23 43 -16 12 -27 25 -24
29 2 4 -3 15 -12 23 -8 9 -12 16 -8 16 3 0 1 7 -6 15 -7 8 -10 15 -7 15 4 0
-7 14 -23 30 -30 31 -39 47 -20 35 6 -3 10 -2 10 3 0 5 -9 12 -21 15 -12 3
-18 10 -15 15 9 15 -4 42 -21 42 -8 0 -11 5 -8 10 3 6 1 10 -5 10 -6 0 -9 4
-5 9 3 5 1 12 -5 16 -6 4 -8 11 -4 16 3 5 0 8 -8 7 -8 -2 -12 5 -10 21 3 18 0
22 -11 18 -11 -4 -15 0 -12 13 2 11 -2 26 -9 33 -7 7 -12 20 -10 30 1 9 -2 15
-7 11 -8 -5 -13 9 -10 29 0 4 -4 7 -9 7 -6 0 -10 6 -10 14 0 7 -9 25 -20 39
-11 14 -20 32 -20 41 0 9 -4 16 -10 16 -5 0 -10 9 -10 19 0 10 -6 21 -14 24
-9 4 -12 14 -9 28 4 15 3 20 -5 15 -7 -4 -13 -2 -13 3 -1 6 -3 16 -4 21 -1 6
-3 15 -4 21 0 5 -5 8 -10 4 -5 -3 -12 4 -16 15 -3 11 -11 20 -16 20 -5 0 -8 3
-8 8 4 22 -2 42 -10 37 -6 -3 -15 4 -21 15 -6 11 -16 17 -22 14 -7 -4 -8 -3
-4 4 4 7 3 12 -2 12 -6 0 -8 10 -4 22 3 14 2 19 -6 14 -7 -4 -12 -1 -12 9 0 9
-4 13 -10 10 -5 -3 -10 3 -10 15 0 11 -7 23 -15 26 -8 4 -12 10 -9 15 3 5 0 9
-6 9 -6 0 -9 4 -5 9 3 5 -2 17 -11 25 -9 9 -13 23 -10 31 3 9 0 15 -9 15 -8 0
-14 3 -13 8 4 12 -35 92 -45 92 -4 0 -5 5 -2 10 3 6 0 10 -7 10 -9 0 -9 3 2
10 13 8 12 10 -3 10 -9 0 -16 3 -15 8 4 14 -13 52 -23 52 -6 0 -8 4 -4 9 3 5
-2 16 -10 24 -8 9 -15 25 -15 37 0 14 -4 19 -12 14 -8 -5 -9 -2 -5 10 4 10 -1
24 -13 36 -11 11 -15 20 -10 20 7 0 7 6 1 19 -6 10 -7 22 -3 26 4 5 2 5 -4 2
-13 -8 -27 20 -18 34 3 5 1 9 -4 9 -11 0 -46 71 -43 88 1 6 -5 12 -14 12 -8 0
-14 3 -14 8 4 24 -2 42 -13 36 -8 -5 -9 0 -6 14 4 12 2 22 -3 22 -11 0 -43 70
-40 89 1 7 -2 10 -8 6 -6 -3 -12 -1 -12 4 -3 20 -5 26 -19 51 -8 14 -15 27
-15 30 0 3 -6 15 -13 26 -6 12 -8 24 -5 28 3 3 -2 6 -11 6 -10 0 -16 6 -13 13
2 6 -2 19 -10 28 -8 9 -15 26 -16 37 0 11 -5 18 -9 16 -7 -4 -12 16 -10 37 1
3 -10 12 -24 20 -19 10 -24 19 -21 36 2 12 1 21 -2 19 -8 -5 -25 16 -29 34 -2
8 -8 17 -13 18 -5 2 -9 15 -9 28 0 15 -6 24 -16 24 -12 0 -14 3 -6 13 8 10 6
17 -8 27 -10 7 -17 21 -15 32 2 11 -2 18 -11 18 -8 0 -13 4 -9 9 3 5 1 12 -5
16 -6 4 -8 11 -5 16 4 5 -1 12 -9 15 -9 3 -14 10 -11 14 3 5 0 14 -7 22 -7 7
-15 22 -16 33 -2 11 -8 22 -13 23 -5 2 -9 10 -9 18 0 8 -7 26 -16 39 -9 14
-12 25 -8 25 5 0 4 4 -1 8 -19 13 -42 57 -39 74 1 11 -3 15 -14 11 -9 -4 -13
-2 -9 3 3 6 -2 23 -13 39 -10 15 -16 34 -13 42 3 8 0 13 -8 11 -9 -2 -14 5
-13 20 0 12 -5 22 -13 22 -7 0 -13 11 -13 24 0 13 -7 26 -15 30 -8 3 -12 12
-9 21 3 8 2 15 -4 15 -8 0 -27 38 -34 70 0 3 -8 11 -17 18 -13 11 -13 12 -1 7
13 -6 13 -5 0 7 -8 7 -15 20 -15 28 0 8 -6 14 -13 12 -8 -1 -11 2 -7 8 3 5 0
10 -7 10 -11 0 -11 2 0 9 10 6 10 10 -3 21 -9 7 -14 19 -11 26 3 7 -1 15 -9
17 -7 3 -18 22 -25 41 -7 23 -16 34 -23 29 -7 -4 -6 1 2 10 12 15 11 17 -2 17
-11 0 -15 8 -12 30 3 21 1 28 -7 24 -8 -5 -9 -1 -5 10 4 10 3 15 -3 11 -6 -3
-11 -1 -11 4 -1 6 -2 17 -3 24 -1 6 -7 11 -13 10 -6 -1 -10 3 -10 10 1 34 -5
47 -20 47 -15 0 -16 2 -3 10 13 8 12 12 -7 25 -14 10 -19 22 -16 35 4 13 0 20
-10 20 -8 0 -15 10 -16 25 -3 48 -4 55 -13 55 -5 0 -7 4 -4 9 4 5 3 11 -2 13
-4 1 -18 20 -30 41 -12 21 -16 35 -10 31 13 -8 -20 36 -36 47 -4 4 -4 9 2 13
6 3 8 15 5 25 -4 15 -13 19 -40 18 -19 -1 -37 -5 -40 -9z"/>
<path d="M1144 3176 c-11 -6 -20 -17 -22 -24 -1 -8 2 -11 9 -6 9 5 10 1 7 -14
-4 -12 -2 -20 3 -17 4 3 18 -5 30 -19 12 -14 26 -23 31 -20 4 3 8 0 8 -6 0 -6
5 -8 13 -4 9 6 9 4 -1 -8 -10 -13 -10 -17 5 -23 32 -12 58 -15 72 -6 18 12 3
37 -49 81 -22 19 -51 44 -64 56 -19 17 -28 19 -42 10z"/>
<path d="M3785 3116 c-37 -21 -45 -32 -32 -46 9 -10 9 -11 0 -6 -7 3 -14 -2
-18 -14 -4 -11 -20 -27 -36 -35 -16 -9 -29 -18 -29 -21 0 -3 6 -2 13 1 6 4 -3
-7 -20 -23 -40 -35 -44 -67 -8 -67 14 0 25 4 25 8 0 5 5 5 10 2 6 -3 13 1 16
9 3 9 10 13 15 10 5 -3 9 2 9 10 0 9 5 16 11 16 6 0 9 9 6 20 -3 11 -1 20 5
20 11 0 33 21 37 35 2 6 7 9 12 8 5 -2 10 2 10 7 3 19 4 25 11 35 3 6 1 17 -5
26 -10 13 -16 14 -32 5z"/>
<path d="M1010 2978 c0 -9 -5 -20 -12 -24 -7 -4 -8 -3 -4 4 4 7 5 12 2 12 -3
0 -10 -10 -17 -21 -9 -17 -8 -20 2 -14 9 6 11 3 6 -8 -4 -11 -1 -17 9 -17 8 0
22 -7 31 -15 8 -8 19 -12 25 -9 7 4 8 2 4 -4 -4 -7 -2 -12 4 -12 6 0 9 -4 6
-9 -3 -5 2 -8 12 -7 10 0 16 -5 14 -13 -3 -12 0 -12 12 -2 8 7 17 8 20 2 13
-20 42 0 42 29 0 21 -4 26 -14 22 -10 -3 -13 -1 -8 6 5 8 -1 12 -17 12 -14 0
-28 7 -31 16 -4 9 -13 14 -22 10 -8 -3 -13 -2 -11 2 3 4 -1 13 -9 20 -11 10
-14 10 -14 0 -1 -7 -7 -2 -15 12 -10 18 -14 20 -15 8z"/>
<path d="M2440 2914 c0 -8 -4 -13 -9 -10 -5 3 -12 -2 -16 -11 -3 -10 -1 -19 4
-21 8 -3 8 -10 1 -23 -8 -13 -7 -19 0 -19 8 0 8 -6 0 -20 -7 -13 -7 -20 -1
-20 6 0 8 -7 5 -15 -3 -8 -11 -13 -17 -12 -13 2 -17 -100 -5 -125 6 -12 3 -20
-10 -27 -13 -7 -18 -22 -19 -52 0 -24 -6 -45 -12 -47 -6 -2 -11 -19 -11 -38 0
-21 -4 -33 -10 -29 -10 6 -11 1 -14 -47 0 -12 -7 -23 -14 -26 -6 -2 -9 -9 -6
-14 4 -6 -1 -17 -11 -24 -10 -7 -15 -20 -12 -28 4 -10 -1 -20 -13 -26 -11 -6
-17 -16 -14 -25 4 -8 -1 -18 -10 -21 -9 -3 -15 -14 -14 -23 2 -11 -3 -15 -17
-13 -16 2 -17 1 -5 -7 8 -5 12 -12 10 -13 -3 -2 -17 -12 -32 -21 -17 -11 -25
-23 -22 -32 4 -8 1 -15 -7 -15 -7 0 -10 -3 -7 -6 8 -8 -90 -104 -107 -104 -7
0 -23 -12 -35 -27 -12 -16 -25 -28 -28 -28 -4 0 -6 -4 -4 -8 1 -5 -3 -5 -9 -1
-6 3 -15 0 -20 -7 -7 -12 -9 -12 -9 0 0 11 -3 11 -17 0 -9 -8 -14 -9 -10 -2 5
7 1 9 -12 6 -12 -3 -19 -13 -18 -24 1 -19 3 -20 35 -23 9 -1 23 -5 31 -10 9
-6 12 -5 8 1 -4 7 6 10 28 10 19 -1 37 -7 40 -15 3 -8 12 -11 25 -7 12 4 20 2
20 -6 0 -8 3 -9 13 0 10 8 18 6 33 -7 10 -9 30 -18 43 -20 30 -3 53 -21 44
-35 -3 -6 -1 -7 5 -3 7 4 12 1 12 -6 0 -10 2 -10 9 1 6 9 11 10 15 2 4 -6 12
-8 18 -5 6 4 9 3 6 -2 -3 -5 0 -14 7 -21 11 -10 15 -10 18 0 3 7 6 5 6 -5 1
-12 6 -15 19 -11 9 3 14 3 10 -1 -4 -5 4 -18 18 -31 13 -12 24 -29 24 -38 0
-9 11 -24 25 -35 13 -11 21 -22 18 -26 -3 -3 -1 -6 6 -6 7 0 9 -5 6 -10 -3 -6
1 -13 10 -16 9 -4 14 -13 11 -21 -3 -8 -1 -11 4 -8 6 3 10 3 11 -2 0 -4 2 -23
3 -40 1 -18 11 -42 21 -53 21 -24 37 -26 29 -5 -4 10 0 15 11 15 12 0 15 5 10
20 -4 12 -2 20 5 20 6 0 8 5 4 12 -13 20 -10 58 3 58 11 0 18 19 14 43 0 4 6
7 14 7 8 0 12 6 9 13 -6 16 30 59 41 49 5 -4 5 -1 1 6 -4 7 -1 15 8 18 9 3 13
10 10 15 -3 5 4 9 16 9 12 0 19 4 16 8 -3 5 3 16 13 24 14 12 22 13 31 5 8 -9
9 -7 4 7 -5 13 -4 17 3 13 6 -4 16 0 23 8 7 8 24 12 41 10 16 -2 27 0 25 4 -3
4 4 12 15 19 10 7 19 8 19 4 0 -14 43 -8 62 7 20 17 56 22 64 9 3 -4 10 -6 15
-2 6 3 22 7 37 9 14 1 28 8 30 14 2 6 12 11 22 11 10 0 17 6 16 13 -3 23 -17
36 -31 30 -10 -3 -15 1 -15 13 0 9 -3 14 -7 11 -3 -4 -11 0 -17 9 -6 8 -21 16
-34 17 -12 0 -22 7 -22 13 0 7 -16 18 -35 25 -19 7 -33 15 -30 17 7 7 -22 32
-37 32 -16 0 -138 116 -138 130 0 6 -7 10 -16 10 -8 0 -12 5 -9 10 3 6 1 10
-5 10 -7 0 -9 7 -6 16 4 11 -1 18 -14 21 -11 3 -17 9 -14 14 3 5 1 9 -4 9 -5
0 -12 13 -15 30 -5 21 -11 28 -22 24 -11 -5 -15 1 -15 20 0 14 -4 26 -10 26
-5 0 -10 7 -10 16 0 8 -4 13 -9 10 -11 -7 -23 22 -15 35 3 5 0 9 -6 9 -6 0 -9
4 -5 9 3 5 -2 16 -10 24 -17 17 -21 42 -5 32 6 -4 5 4 -1 19 -7 14 -15 23 -19
21 -4 -2 -6 6 -6 18 1 12 -4 34 -11 48 -7 15 -13 51 -13 80 -1 79 -2 89 -12
83 -9 -6 -11 9 -10 84 1 39 -3 52 -13 52 -8 0 -15 -7 -15 -16z"/>
<path d="M3875 2728 c-12 -11 -22 -15 -28 -9 -11 11 -39 3 -31 -10 3 -5 -1 -9
-9 -9 -7 0 -14 -7 -14 -15 0 -8 7 -15 14 -15 8 0 12 -4 9 -8 -7 -12 44 -8 52
4 4 5 23 9 42 9 39 0 65 19 67 51 1 19 -4 21 -41 20 -26 0 -50 -8 -61 -18z"/>
<path d="M910 2578 c-20 -8 -29 -48 -9 -48 5 0 8 -4 5 -8 -2 -4 38 -9 90 -9
66 -1 94 2 94 10 0 8 3 8 9 -1 6 -10 10 -8 14 8 7 26 -1 52 -14 44 -5 -3 -9
-1 -9 3 0 11 -152 11 -180 1z"/>
<path d="M3891 2441 c-5 -3 -5 -15 -1 -27 7 -17 16 -20 57 -19 27 1 54 5 60 8
7 4 15 2 19 -4 4 -8 9 -7 15 2 6 9 9 10 9 2 0 -13 17 -12 43 3 16 9 16 12 4
23 -20 16 -84 23 -92 10 -5 -7 -11 -6 -21 2 -11 9 -14 8 -14 -2 0 -9 -3 -10
-8 -4 -8 11 -57 15 -71 6z"/>
<path d="M2160 1195 c-7 -13 -17 -22 -21 -19 -5 3 -6 -1 -3 -9 3 -8 -2 -22
-11 -30 -9 -9 -15 -19 -15 -22 2 -10 -25 -65 -31 -65 -4 0 -6 -11 -6 -25 0
-13 3 -22 8 -20 4 3 10 1 14 -4 7 -13 45 18 45 37 0 8 6 12 13 9 10 -4 13 3
12 23 -1 16 3 28 9 27 5 -1 12 7 14 18 2 11 11 25 19 32 8 6 12 17 8 23 -4 6
-1 17 7 23 7 7 11 11 9 10 -2 -2 -10 2 -18 8 -10 9 -13 8 -13 -1 0 -9 -3 -10
-13 -1 -11 8 -17 5 -27 -14z"/>
<path d="M2750 1201 c0 -5 -8 -11 -17 -13 -16 -3 -16 -4 0 -20 9 -9 17 -21 17
-27 0 -6 3 -10 8 -8 4 1 7 -1 7 -5 0 -4 9 -14 20 -23 11 -9 13 -14 5 -10 -8 4
-4 -3 9 -14 13 -12 20 -21 16 -21 -19 0 29 -32 52 -34 39 -5 45 2 27 30 -9 13
-13 24 -10 24 4 0 1 6 -6 14 -7 8 -16 12 -20 9 -5 -2 -8 2 -8 9 0 7 -9 19 -20
26 -12 7 -18 18 -14 24 4 6 3 8 -3 5 -6 -4 -18 4 -27 18 -16 25 -36 33 -36 16z"/>
<path d="M2480 1110 c-24 -14 -19 -146 6 -165 11 -8 14 -15 7 -15 -21 0 2 -43
24 -45 14 -1 19 3 16 12 -3 7 0 13 7 13 6 0 8 5 4 11 -11 18 -11 109 -1 109 5
0 4 7 -3 15 -7 8 -9 15 -6 15 4 0 0 7 -8 16 -9 8 -16 22 -16 30 0 16 -8 17
-30 4z"/>
</g>
</svg>
